<?xml version="1.0" encoding="UTF-8" standalone="no"?>
<!DOCTYPE svg PUBLIC "-//W3C//DTD SVG 1.1//EN" "http://www.w3.org/Graphics/SVG/1.1/DTD/svg11.dtd">
<svg width="100%" height="100%" viewBox="0 0 6000 3600" version="1.1" xmlns="http://www.w3.org/2000/svg" xmlns:xlink="http://www.w3.org/1999/xlink" xml:space="preserve" xmlns:serif="http://www.serif.com/" style="fill-rule:evenodd;clip-rule:evenodd;stroke-linecap:round;stroke-linejoin:round;stroke-miterlimit:1.5;">
    <g transform="matrix(1,0,0,1,-23.622,-2.55795e-13)">
        <path d="M448.819,0L448.819,35.433L507.874,35.433L507.874,0L531.496,0L519.685,1181.1L496.063,1181.1L496.063,1145.67L437.008,1145.67L437.008,1181.1L413.386,1181.1L425.197,0L448.819,0Z" style="fill:rgb(231,232,233);"/>
    </g>
    <g transform="matrix(1,0,0,1,94.4882,-2.27374e-13)">
        <path d="M460.63,0L460.63,35.433L496.063,35.433L496.063,0L531.496,0L519.685,1181.1L484.252,1181.1L484.252,1145.67L448.819,1145.67L448.819,1181.1L413.386,1181.1L425.197,0L460.63,0Z" style="fill:rgb(231,232,233);"/>
    </g>
    <g transform="matrix(1,0,0,1,206.693,-2.55795e-13)">
        <path d="M448.819,0L448.819,35.433L507.874,35.433L507.874,0L531.496,0L519.685,1181.1L496.063,1181.1L496.063,1145.67L437.008,1145.67L437.008,1181.1L413.386,1181.1L425.197,0L448.819,0Z" style="fill:rgb(231,232,233);"/>
    </g>
    <g transform="matrix(1,0,0,1,324.803,-2.27374e-13)">
        <path d="M460.63,0L460.63,35.433L496.063,35.433L496.063,0L531.496,0L519.685,1181.1L484.252,1181.1L484.252,1145.67L448.819,1145.67L448.819,1181.1L413.386,1181.1L425.197,0L460.63,0Z" style="fill:rgb(231,232,233);"/>
    </g>
    <g transform="matrix(1,0,0,1,442.913,-5.68434e-14)">
        <path d="M448.819,0L448.819,35.433L507.874,35.433L507.874,0L531.496,0L519.685,1181.1L496.063,1181.1L496.063,1145.67L437.008,1145.67L437.008,1181.1L413.386,1181.1L425.197,0L448.819,0Z" style="fill:rgb(231,232,233);"/>
    </g>
    <g transform="matrix(1,0,0,1,561.024,-2.84217e-14)">
        <path d="M460.63,0L460.63,35.433L496.063,35.433L496.063,0L531.496,0L519.685,1181.1L484.252,1181.1L484.252,1145.67L448.819,1145.67L448.819,1181.1L413.386,1181.1L425.197,0L460.63,0Z" style="fill:rgb(231,232,233);"/>
    </g>
    <path d="M0,0L70.866,0L70.866,23.622L106.299,23.622L106.299,0L160.252,53.953L135.827,78.378L161.299,103.851L185.725,79.426L209.945,103.645L185.519,128.071L210.992,153.543L235.417,129.118L236.22,129.921L236.22,236.22L106.299,106.299L106.299,82.677L70.866,82.677L70.866,478.346L106.299,478.346L106.299,454.724L160.252,508.677L135.827,533.103L161.299,558.575L185.725,534.15L209.945,558.37L185.519,582.795L210.992,608.268L235.417,583.842L236.22,584.646L236.22,690.945L106.299,561.024L106.299,537.402L70.866,537.402L70.866,933.071L106.299,933.071L106.299,909.449L160.252,963.402L135.827,987.827L161.299,1013.3L185.725,988.874L209.945,1013.09L185.519,1037.52L210.992,1062.99L235.417,1038.57L236.22,1039.37L236.22,1145.67L106.299,1015.75L106.299,992.126L70.866,992.126L70.866,1181.1L0,1181.1L0,0Z" style="fill:none;stroke:rgb(35,31,32);stroke-width:1px;"/>
    <g transform="matrix(-1,0,0,-1,330.709,1275.59)">
        <path d="M0,0L70.866,0L70.866,23.622L106.299,23.622L106.299,0L160.252,53.953L135.827,78.378L161.299,103.851L185.725,79.426L209.945,103.645L185.519,128.071L210.992,153.543L235.417,129.118L236.22,129.921L236.22,236.22L106.299,106.299L106.299,82.677L70.866,82.677L70.866,478.346L106.299,478.346L106.299,454.724L160.252,508.677L135.827,533.103L161.299,558.575L185.725,534.15L209.945,558.37L185.519,582.795L210.992,608.268L235.417,583.842L236.22,584.646L236.22,690.945L106.299,561.024L106.299,537.402L70.866,537.402L70.866,933.071L106.299,933.071L106.299,909.449L160.252,963.402L135.827,987.827L161.299,1013.3L185.725,988.874L209.945,1013.09L185.519,1037.52L210.992,1062.99L235.417,1038.57L236.22,1039.37L236.22,1145.67L106.299,1015.75L106.299,992.126L70.866,992.126L70.866,1181.1L0,1181.1L0,0Z" style="fill:none;stroke:rgb(35,31,32);stroke-width:1px;"/>
    </g>
</svg>
