<?xml version="1.0" encoding="UTF-8" standalone="no"?>
<!DOCTYPE svg PUBLIC "-//W3C//DTD SVG 1.1//EN" "http://www.w3.org/Graphics/SVG/1.1/DTD/svg11.dtd">
<svg width="100%" height="100%" viewBox="0 0 6000 3600" version="1.1" xmlns="http://www.w3.org/2000/svg" xmlns:xlink="http://www.w3.org/1999/xlink" xml:space="preserve" xmlns:serif="http://www.serif.com/" style="fill-rule:evenodd;clip-rule:evenodd;stroke-linecap:round;stroke-linejoin:round;stroke-miterlimit:1.5;">
    <g transform="matrix(1,0,0,1,-141.732,-5.68434e-14)">
        <path d="M448.819,0L448.819,35.433L507.874,35.433L507.874,0L531.496,0L531.496,1535.43L507.874,1535.43L507.874,1500L448.819,1500L448.819,1535.43L425.197,1535.43L425.197,0L448.819,0Z" style="fill:rgb(231,232,233);"/>
    </g>
    <g transform="matrix(1,0,0,1,-23.622,-2.84217e-14)">
        <path d="M460.63,0L460.63,35.433L496.063,35.433L496.063,0L531.496,0L531.496,1535.43L496.063,1535.43L496.063,1500L460.63,1500L460.63,1535.43L425.197,1535.43L425.197,0L460.63,0Z" style="fill:rgb(231,232,233);"/>
    </g>
    <g transform="matrix(1,0,0,1,88.5827,-5.68434e-14)">
        <path d="M448.819,0L448.819,35.433L507.874,35.433L507.874,0L531.496,0L531.496,1535.43L507.874,1535.43L507.874,1500L448.819,1500L448.819,1535.43L425.197,1535.43L425.197,0L448.819,0Z" style="fill:rgb(231,232,233);"/>
    </g>
    <g transform="matrix(1,0,0,1,206.693,-2.84217e-14)">
        <path d="M460.63,0L460.63,35.433L496.063,35.433L496.063,0L531.496,0L531.496,1535.43L496.063,1535.43L496.063,1500L460.63,1500L460.63,1535.43L425.197,1535.43L425.197,0L460.63,0Z" style="fill:rgb(231,232,233);"/>
    </g>
    <g transform="matrix(1,0,0,1,324.803,1.42109e-13)">
        <path d="M448.819,0L448.819,35.433L507.874,35.433L507.874,0L531.496,0L531.496,1535.43L507.874,1535.43L507.874,1500L448.819,1500L448.819,1535.43L425.197,1535.43L425.197,0L448.819,0Z" style="fill:rgb(231,232,233);"/>
    </g>
    <g transform="matrix(1,0,0,1,442.913,1.7053e-13)">
        <path d="M460.63,0L460.63,35.433L496.063,35.433L496.063,0L531.496,0L531.496,1535.43L496.063,1535.43L496.063,1500L460.63,1500L460.63,1535.43L425.197,1535.43L425.197,0L460.63,0Z" style="fill:rgb(231,232,233);"/>
    </g>
    <g transform="matrix(1,0,0,1,-23.622,5.68434e-14)">
        <path d="M23.622,0L70.866,0L70.866,23.622L106.299,23.622L106.299,0L160.252,53.953L135.827,78.378L161.299,103.851L185.725,79.426L209.945,103.645L185.519,128.071L210.992,153.543L235.417,129.118L236.22,129.921L236.22,236.22L106.299,106.299L106.299,82.677L70.866,82.677L70.866,318.898L106.299,318.898L106.299,295.276L160.252,349.229L135.827,373.654L161.299,399.127L185.725,374.701L209.945,398.921L185.519,423.346L210.992,448.819L235.417,424.393L236.22,425.197L236.22,531.496L106.299,401.575L106.299,377.953L70.866,377.953L70.866,614.173L106.299,614.173L106.299,590.551L160.252,644.504L135.827,668.93L161.299,694.402L185.725,669.977L209.945,694.197L185.519,718.622L210.992,744.094L235.417,719.669L236.22,720.472L236.22,826.772L106.299,696.85L106.299,673.228L70.866,673.228L70.866,826.772L23.622,826.772L23.622,0Z" style="fill:none;stroke:rgb(35,31,32);stroke-width:1px;"/>
    </g>
    <g transform="matrix(-1,0,0,-1,295.276,956.693)">
        <path d="M23.622,0L70.866,0L70.866,23.622L106.299,23.622L106.299,0L160.252,53.953L135.827,78.378L161.299,103.851L185.725,79.426L209.945,103.645L185.519,128.071L210.992,153.543L235.417,129.118L236.22,129.921L236.22,236.22L106.299,106.299L106.299,82.677L70.866,82.677L70.866,318.898L106.299,318.898L106.299,295.276L160.252,349.229L135.827,373.654L161.299,399.127L185.725,374.701L209.945,398.921L185.519,423.346L210.992,448.819L235.417,424.393L236.22,425.197L236.22,531.496L106.299,401.575L106.299,377.953L70.866,377.953L70.866,614.173L106.299,614.173L106.299,590.551L160.252,644.504L135.827,668.93L161.299,694.402L185.725,669.977L209.945,694.197L185.519,718.622L210.992,744.094L235.417,719.669L236.22,720.472L236.22,826.772L106.299,696.85L106.299,673.228L70.866,673.228L70.866,826.772L23.622,826.772L23.622,0Z" style="fill:none;stroke:rgb(35,31,32);stroke-width:1px;"/>
    </g>
</svg>
